<svg width="994" height="137" viewBox="0 0 994 137" fill="none" xmlns="http://www.w3.org/2000/svg">
<path d="M60.753 136.918C48.686 136.918 38.0527 134.29 28.8532 129.033C19.7731 123.656 12.6643 116.249 7.52691 106.81C2.50897 97.372 0 86.4998 0 74.1939C0 65.1138 1.49344 56.8103 4.48031 49.2834C7.58665 41.637 11.828 35.0061 17.2044 29.3908C22.7002 23.7755 29.0921 19.4147 36.3801 16.3083C43.7875 13.202 51.8521 11.6488 60.5737 11.6488C65.4722 11.6488 70.9681 12.2462 77.0613 13.4409C83.1545 14.5162 89.188 16.7862 95.1617 20.251L95.8786 46.2368H84.7674L81.1832 25.4481C77.9573 23.656 74.7913 22.4015 71.6849 21.6847C68.698 20.9678 65.7709 20.6094 62.9035 20.6094C54.8987 20.6094 47.6107 22.6405 41.0396 26.7026C34.4685 30.7648 29.2116 36.7982 25.2689 44.8031C21.4457 52.6884 19.5341 62.4853 19.5341 74.1939C19.5341 85.9024 21.3263 95.7591 24.9105 103.764C28.4947 111.769 33.453 117.802 39.7851 121.864C46.2368 125.926 53.5247 127.958 61.649 127.958C65.1138 127.958 68.6383 127.599 72.2225 126.882C75.9263 126.046 79.5105 124.791 82.9753 123.119L86.5595 102.33H97.6707L96.9538 128.316C91.458 131.303 85.6037 133.453 79.391 134.768C73.2978 136.201 67.0851 136.918 60.753 136.918Z" fill="white"/>
<path d="M150.155 136.56C143.225 136.56 136.594 134.947 130.262 131.721C124.049 128.376 118.972 123.417 115.029 116.846C111.086 110.156 109.115 101.912 109.115 92.1151C109.115 82.1987 111.086 73.8952 115.029 67.2046C118.972 60.3945 124.049 55.3168 130.262 51.9715C136.594 48.5068 143.225 46.7744 150.155 46.7744C157.084 46.7744 163.655 48.5068 169.868 51.9715C176.2 55.3168 181.338 60.3945 185.28 67.2046C189.342 73.8952 191.373 82.1987 191.373 92.1151C191.373 101.912 189.342 110.156 185.28 116.846C181.338 123.417 176.2 128.376 169.868 131.721C163.655 134.947 157.084 136.56 150.155 136.56ZM150.155 128.495C157.921 128.495 163.894 125.449 168.076 119.355C172.258 113.143 174.348 104.063 174.348 92.1151C174.348 80.0481 172.258 70.8486 168.076 64.5164C163.894 58.1842 157.921 55.0182 150.155 55.0182C142.389 55.0182 136.415 58.1842 132.233 64.5164C128.171 70.8486 126.14 80.0481 126.14 92.1151C126.14 104.063 128.171 113.143 132.233 119.355C136.415 125.449 142.389 128.495 150.155 128.495Z" fill="white"/>
<path d="M220.017 92.1151C220.017 103.824 222.346 112.486 227.006 118.101C231.785 123.597 237.759 126.345 244.927 126.345C248.87 126.345 252.335 125.568 255.321 124.015C258.428 122.342 261.654 119.654 264.999 115.95V66.3085C260.937 62.7243 257.293 60.275 254.067 58.9608C250.841 57.6466 247.735 56.9895 244.748 56.9895C240.327 56.9895 236.205 58.244 232.382 60.7529C228.679 63.1424 225.692 66.9656 223.422 72.2225C221.152 77.3599 220.017 83.9908 220.017 92.1151ZM266.791 136.022L265.537 123.656C262.43 127.719 258.846 130.885 254.784 133.155C250.841 135.425 246.062 136.56 240.447 136.56C233.159 136.56 226.767 134.708 221.271 131.004C215.775 127.3 211.474 122.163 208.368 115.592C205.381 108.901 203.888 101.195 203.888 92.4735C203.888 83.274 205.56 75.2691 208.905 68.4591C212.251 61.649 216.791 56.3324 222.526 52.5092C228.26 48.686 234.772 46.7744 242.06 46.7744C246.241 46.7744 250.244 47.6107 254.067 49.2834C258.01 50.956 261.833 54.0026 265.537 58.4232V17.9212L250.304 16.1291V9.85667L278.261 1.79212L280.77 3.22582L280.053 28.674V125.628L294.569 127.778V134.23L266.791 136.022Z" fill="white"/>
<path d="M342.129 55.0182C338.784 55.0182 335.378 55.9739 331.914 57.8855C328.568 59.7971 325.641 62.8438 323.132 67.0254C320.743 71.207 319.19 76.7626 318.473 83.6921H351.089C355.391 83.6921 358.198 82.7961 359.512 81.0039C360.946 79.2118 361.663 77.0015 361.663 74.3731C361.663 70.9083 360.767 67.7422 358.975 64.8748C357.302 61.888 354.972 59.4985 351.985 57.7063C349.118 55.9142 345.833 55.0182 342.129 55.0182ZM341.95 136.56C329.883 136.56 320.205 132.677 312.917 124.911C305.629 117.026 301.985 106.213 301.985 92.4735C301.985 83.274 303.837 75.2691 307.541 68.4591C311.364 61.649 316.382 56.3324 322.595 52.5092C328.927 48.686 335.797 46.7744 343.204 46.7744C349.417 46.7744 355.032 48.1484 360.05 50.8963C365.068 53.6442 369.07 57.5869 372.057 62.7243C375.044 67.7422 376.538 73.8952 376.538 81.1831C376.538 83.2142 376.418 85.1258 376.179 86.9179C375.94 88.5906 375.641 90.0243 375.283 91.219H318.114C318.353 102.211 321.101 110.574 326.358 116.309C331.615 122.044 338.545 124.911 347.147 124.911C352.882 124.911 357.661 123.776 361.484 121.506C365.307 119.116 368.831 116.07 372.057 112.366L376.358 115.771C373.013 122.103 368.473 127.181 362.738 131.004C357.003 134.708 350.074 136.56 341.95 136.56Z" fill="white"/>
<path d="M450.869 136.918C438.802 136.918 428.168 134.29 418.969 129.033C409.889 123.656 402.78 116.249 397.643 106.81C392.625 97.372 390.116 86.4998 390.116 74.1939C390.116 65.1138 391.609 56.8103 394.596 49.2834C397.702 41.637 401.944 35.0061 407.32 29.3908C412.816 23.7755 419.208 19.4147 426.496 16.3083C433.903 13.202 441.968 11.6488 450.689 11.6488C455.588 11.6488 461.084 12.2462 467.177 13.4409C473.27 14.5162 479.304 16.7862 485.277 20.251L485.994 46.2368H474.883L471.299 25.4481C468.073 23.656 464.907 22.4015 461.801 21.6847C458.814 20.9678 455.887 20.6094 453.019 20.6094C445.014 20.6094 437.726 22.6405 431.155 26.7026C424.584 30.7648 419.327 36.7982 415.385 44.8031C411.561 52.6884 409.65 62.4853 409.65 74.1939C409.65 85.9024 411.442 95.7591 415.026 103.764C418.61 111.769 423.569 117.802 429.901 121.864C436.352 125.926 443.64 127.958 451.765 127.958C455.229 127.958 458.754 127.599 462.338 126.882C466.042 126.046 469.626 124.791 473.091 123.119L476.675 102.33H487.786L487.069 128.316C481.574 131.303 475.719 133.453 469.507 134.768C463.413 136.201 457.201 136.918 450.869 136.918Z" fill="white"/>
<path d="M498.693 134.23V127.778L511.596 125.449C511.716 120.909 511.776 116.01 511.776 110.753C511.895 105.377 511.955 100.658 511.955 96.5954V87.9932C511.955 83.0947 511.895 79.0326 511.776 75.8068C511.776 72.581 511.656 69.1759 511.417 65.5917L497.259 63.9788V57.7063L522.349 46.7744L525.037 48.5665L527.009 69.7136C529.995 62.5451 533.819 56.9297 538.478 52.8676C543.257 48.8055 548.036 46.7744 552.815 46.7744C555.563 46.7744 558.132 47.3718 560.521 48.5665C562.911 49.7613 564.643 51.3742 565.719 53.4052C565.719 62.1269 562.194 66.4877 555.145 66.4877C553.114 66.4877 551.202 66.1293 549.41 65.4125C547.618 64.5761 545.886 63.4411 544.213 62.0074L542.062 60.0361C538.478 62.6645 535.491 65.8904 533.102 69.7136C530.712 73.5368 528.741 78.0171 527.188 83.1545V96.5954C527.188 100.538 527.188 105.138 527.188 110.395C527.307 115.652 527.427 120.55 527.546 125.09L542.242 127.778V134.23H498.693Z" fill="white"/>
<path d="M635.989 136.022C631.688 136.022 628.104 134.768 625.237 132.259C622.369 129.75 620.577 126.404 619.86 122.223C614.962 127.002 610.661 130.586 606.957 132.975C603.253 135.365 598.773 136.56 593.516 136.56C586.945 136.56 581.27 134.708 576.491 131.004C571.831 127.181 569.502 121.566 569.502 114.158C569.502 110.693 570.278 107.468 571.831 104.481C573.504 101.494 576.491 98.5667 580.792 95.6993C585.093 92.8319 591.246 89.9645 599.251 87.0971C601.999 86.1413 605.165 85.1258 608.749 84.0505C612.333 82.9753 615.917 82.0195 619.502 81.1831V76.7028C619.502 67.9812 618.188 62.1866 615.559 59.3193C612.931 56.4519 608.63 55.0182 602.656 55.0182C601.342 55.0182 599.848 55.0779 598.175 55.1974C596.622 55.3168 594.89 55.6155 592.978 56.0934L589.573 67.7422C587.901 73.477 584.794 76.3444 580.254 76.3444C575.236 76.3444 572.429 73.8952 571.831 68.9967C573.504 62.1866 577.447 56.8103 583.659 52.8676C589.991 48.8055 597.698 46.7744 606.778 46.7744C616.216 46.7744 623.205 49.1639 627.745 53.9429C632.286 58.6024 634.556 66.6072 634.556 77.9573V116.13C634.556 119.953 635.153 122.701 636.348 124.373C637.542 125.926 639.096 126.703 641.007 126.703C642.56 126.703 643.875 126.345 644.95 125.628C646.025 124.911 647.041 123.955 647.996 122.76L651.581 126.703C649.43 130.168 647.041 132.617 644.412 134.051C641.903 135.365 639.096 136.022 635.989 136.022ZM585.451 111.47C585.451 116.249 586.825 119.654 589.573 121.685C592.321 123.716 595.726 124.732 599.788 124.732C601.581 124.732 603.253 124.493 604.806 124.015C606.479 123.537 608.45 122.641 610.72 121.327C612.99 119.893 615.917 117.862 619.502 115.233V87.814C616.395 88.6503 613.349 89.6061 610.362 90.6814C607.375 91.6372 604.926 92.4735 603.014 93.1904C597.877 95.2214 594.054 97.3122 591.545 99.4628C589.036 101.613 587.363 103.704 586.527 105.735C585.81 107.766 585.451 109.678 585.451 111.47Z" fill="white"/>
<path d="M655.486 134.23V127.778L669.643 125.269C669.763 120.49 669.823 115.711 669.823 110.932C669.942 106.153 670.002 101.374 670.002 96.5954V58.6024H655.127V50.7171L670.36 48.7457C671.197 39.1877 672.511 31.4816 674.303 25.6273C676.214 19.6536 679.381 14.4565 683.801 10.0359C687.624 6.21269 691.627 3.58424 695.808 2.15054C699.99 0.716847 704.112 0 708.174 0C712.356 0 716.059 0.776583 719.285 2.32975C722.511 3.76345 724.542 6.21269 725.378 9.67745C725.259 11.9475 724.243 13.8591 722.332 15.4122C720.42 16.9654 717.792 17.742 714.446 17.742C710.145 17.742 705.844 15.9499 701.543 12.3656L696.525 8.42297C696.047 8.78139 695.569 9.13982 695.091 9.49824C694.733 9.85667 694.375 10.2151 694.016 10.5735C690.91 13.6799 688.52 18.3991 686.848 24.7313C685.295 30.944 684.637 39.0683 684.876 49.1041H723.765L728.604 24.7313H739.178L738.282 49.1041H762.296V58.6024H737.923V114.158C737.923 118.698 738.819 122.044 740.611 124.194C742.404 126.225 744.793 127.241 747.78 127.241C749.811 127.241 751.782 126.823 753.694 125.986C755.605 125.15 757.696 123.955 759.966 122.402L764.088 127.061C759.429 133.394 752.38 136.56 742.941 136.56C736.728 136.56 731.77 134.887 728.067 131.542C724.363 128.196 722.511 123.059 722.511 116.13C722.511 113.86 722.511 111.649 722.511 109.499C722.63 107.229 722.69 104.361 722.69 100.896V58.6024H685.235V96.5954C685.235 101.374 685.235 106.153 685.235 110.932C685.354 115.592 685.474 120.311 685.593 125.09L701.722 127.778V134.23H655.486Z" fill="white"/>
<path d="M812.575 55.0182C809.23 55.0182 805.825 55.9739 802.36 57.8855C799.015 59.7971 796.087 62.8438 793.578 67.0254C791.189 71.207 789.636 76.7626 788.919 83.6921H821.536C825.837 83.6921 828.644 82.7961 829.958 81.0039C831.392 79.2118 832.109 77.0015 832.109 74.3731C832.109 70.9083 831.213 67.7422 829.421 64.8748C827.748 61.888 825.419 59.4985 822.432 57.7063C819.564 55.9142 816.279 55.0182 812.575 55.0182ZM812.396 136.56C800.329 136.56 790.651 132.677 783.363 124.911C776.075 117.026 772.431 106.213 772.431 92.4735C772.431 83.274 774.283 75.2691 777.987 68.4591C781.81 61.649 786.828 56.3324 793.041 52.5092C799.373 48.686 806.243 46.7744 813.65 46.7744C819.863 46.7744 825.478 48.1484 830.496 50.8963C835.514 53.6442 839.517 57.5869 842.503 62.7243C845.49 67.7422 846.984 73.8952 846.984 81.1831C846.984 83.2142 846.864 85.1258 846.625 86.9179C846.386 88.5906 846.088 90.0243 845.729 91.219H788.56C788.799 102.211 791.547 110.574 796.804 116.309C802.061 122.044 808.991 124.911 817.593 124.911C823.328 124.911 828.107 123.776 831.93 121.506C835.753 119.116 839.278 116.07 842.503 112.366L846.804 115.771C843.459 122.103 838.919 127.181 833.184 131.004C827.45 134.708 820.52 136.56 812.396 136.56Z" fill="white"/>
<path d="M859.666 134.23V127.778L872.569 125.449C872.688 120.909 872.748 116.01 872.748 110.753C872.868 105.377 872.927 100.658 872.927 96.5954V87.9932C872.927 83.0947 872.868 79.0326 872.748 75.8068C872.748 72.581 872.629 69.1759 872.39 65.5917L858.232 63.9788V57.7063L883.322 46.7744L886.01 48.5665L887.981 69.7136C890.968 62.5451 894.791 56.9297 899.451 52.8676C904.23 48.8055 909.009 46.7744 913.788 46.7744C916.536 46.7744 919.104 47.3718 921.494 48.5665C923.883 49.7613 925.616 51.3742 926.691 53.4052C926.691 62.1269 923.167 66.4877 916.118 66.4877C914.086 66.4877 912.175 66.1293 910.383 65.4125C908.591 64.5761 906.858 63.4411 905.186 62.0074L903.035 60.0361C899.451 62.6645 896.464 65.8904 894.074 69.7136C891.685 73.5368 889.714 78.0171 888.161 83.1545V96.5954C888.161 100.538 888.161 105.138 888.161 110.395C888.28 115.652 888.399 120.55 888.519 125.09L903.214 127.778V134.23H859.666Z" fill="white"/>
<path d="M958.427 136.56C953.409 136.56 948.809 135.962 944.628 134.768C940.446 133.692 936.145 132.02 931.725 129.75L931.008 110.036H940.864L944.269 125.628C948.451 127.539 953.29 128.495 958.786 128.495C965.596 128.495 970.614 127.241 973.839 124.732C977.185 122.223 978.857 118.937 978.857 114.875C978.857 111.052 977.483 108.005 974.735 105.735C971.988 103.346 967.806 101.195 962.191 99.2836L953.947 96.237C947.376 93.8475 942.119 90.7411 938.176 86.9179C934.234 83.0947 932.262 78.1365 932.262 72.0433C932.262 67.6227 933.457 63.5009 935.846 59.6777C938.236 55.8545 941.76 52.7481 946.42 50.3586C951.079 47.9691 956.754 46.7744 963.445 46.7744C968.344 46.7744 972.764 47.4315 976.707 48.7457C980.769 49.9405 984.712 51.7326 988.535 54.1221L987.818 72.4017H978.499L975.632 58.0648C971.569 56.0337 967.447 55.0182 963.266 55.0182C957.77 55.0182 953.588 56.1532 950.721 58.4232C947.973 60.5737 946.599 63.5009 946.599 67.2046C946.599 71.1473 947.794 74.1341 950.183 76.1652C952.692 78.1963 956.993 80.3468 963.087 82.6168L968.642 84.5882C977.603 87.9335 983.935 91.7567 987.639 96.0578C991.462 100.359 993.374 105.317 993.374 110.932C993.374 115.472 992.059 119.714 989.431 123.656C986.802 127.48 982.919 130.586 977.782 132.975C972.645 135.365 966.193 136.56 958.427 136.56Z" fill="white"/>
</svg>
